<svg xmlns="http://www.w3.org/2000/svg" version="1.1" xmlns:xlink="http://www.w3.org/1999/xlink" xmlns:svgjs="http://svgjs.com/svgjs" width="1440" height="560" preserveAspectRatio="none" viewBox="0 0 1440 560"><g mask="url(&quot;#SvgjsMask1003&quot;)" fill="none"><rect width="1440" height="560" x="0" y="0" fill="rgba(71, 14, 14, 1)"></rect><path d="M34.64 -50.11L99.59 -12.61L99.59 62.39L34.64 99.89L-30.31 62.39L-30.31 -12.61zM229.5 62.39L294.45 99.89L294.45 174.89L229.5 212.39L164.55 174.89L164.55 99.89zM229.5 287.39L294.45 324.89L294.45 399.89L229.5 437.39L164.55 399.89L164.55 324.89zM229.5 512.39L294.45 549.89L294.45 624.89L229.5 662.39L164.55 624.89L164.55 549.89zM294.45 -50.11L359.41 -12.61L359.41 62.39L294.45 99.89L229.5 62.39L229.5 -12.61zM359.41 62.39L424.36 99.89L424.36 174.89L359.41 212.39L294.45 174.89L294.45 99.89zM359.41 287.39L424.36 324.89L424.36 399.89L359.41 437.39L294.45 399.89L294.45 324.89zM489.32 62.39L554.27 99.89L554.27 174.89L489.32 212.39L424.36 174.89L424.36 99.89zM489.32 287.39L554.27 324.89L554.27 399.89L489.32 437.39L424.36 399.89L424.36 324.89zM554.27 -50.11L619.22 -12.61L619.22 62.39L554.27 99.89L489.32 62.39L489.32 -12.61zM554.27 174.89L619.22 212.39L619.22 287.39L554.27 324.89L489.32 287.39L489.32 212.39zM619.22 287.39L684.18 324.89L684.18 399.89L619.22 437.39L554.27 399.89L554.27 324.89zM619.22 512.39L684.18 549.89L684.18 624.89L619.22 662.39L554.27 624.89L554.27 549.89zM684.18 -50.11L749.13 -12.61L749.13 62.39L684.18 99.89L619.22 62.39L619.22 -12.61zM684.18 174.89L749.13 212.39L749.13 287.39L684.18 324.89L619.22 287.39L619.22 212.39zM749.13 287.39L814.09 324.89L814.09 399.89L749.13 437.39L684.18 399.89L684.18 324.89zM684.18 399.89L749.13 437.39L749.13 512.39L684.18 549.89L619.22 512.39L619.22 437.39zM879.04 512.39L943.99 549.89L943.99 624.89L879.04 662.39L814.08 624.89L814.08 549.89zM1008.95 62.39L1073.9 99.89L1073.9 174.89L1008.95 212.39L943.99 174.89L943.99 99.89zM943.99 174.89L1008.95 212.39L1008.95 287.39L943.99 324.89L879.04 287.39L879.04 212.39zM1138.85 287.39L1203.81 324.89L1203.81 399.89L1138.85 437.39L1073.9 399.89L1073.9 324.89zM1268.76 62.39L1333.71 99.89L1333.71 174.89L1268.76 212.39L1203.81 174.89L1203.81 99.89zM1333.72 174.89L1398.67 212.39L1398.67 287.39L1333.72 324.89L1268.76 287.39L1268.76 212.39zM1398.67 287.39L1463.62 324.89L1463.62 399.89L1398.67 437.39L1333.72 399.89L1333.72 324.89zM1333.72 399.89L1398.67 437.39L1398.67 512.39L1333.72 549.89L1268.76 512.39L1268.76 437.39z" stroke="rgba(93, 3, 3, 1)" stroke-width="2"></path><path d="M27.14 -50.11 a7.5 7.5 0 1 0 15 0 a7.5 7.5 0 1 0 -15 0zM92.09 -12.61 a7.5 7.5 0 1 0 15 0 a7.5 7.5 0 1 0 -15 0zM92.09 62.39 a7.5 7.5 0 1 0 15 0 a7.5 7.5 0 1 0 -15 0zM27.14 99.89 a7.5 7.5 0 1 0 15 0 a7.5 7.5 0 1 0 -15 0zM-37.81 62.39 a7.5 7.5 0 1 0 15 0 a7.5 7.5 0 1 0 -15 0zM-37.81 -12.61 a7.5 7.5 0 1 0 15 0 a7.5 7.5 0 1 0 -15 0zM222 62.39 a7.5 7.5 0 1 0 15 0 a7.5 7.5 0 1 0 -15 0zM286.95 99.89 a7.5 7.5 0 1 0 15 0 a7.5 7.5 0 1 0 -15 0zM286.95 174.89 a7.5 7.5 0 1 0 15 0 a7.5 7.5 0 1 0 -15 0zM222 212.39 a7.5 7.5 0 1 0 15 0 a7.5 7.5 0 1 0 -15 0zM157.05 174.89 a7.5 7.5 0 1 0 15 0 a7.5 7.5 0 1 0 -15 0zM157.05 99.89 a7.5 7.5 0 1 0 15 0 a7.5 7.5 0 1 0 -15 0zM222 287.39 a7.5 7.5 0 1 0 15 0 a7.5 7.5 0 1 0 -15 0zM286.95 324.89 a7.5 7.5 0 1 0 15 0 a7.5 7.5 0 1 0 -15 0zM286.95 399.89 a7.5 7.5 0 1 0 15 0 a7.5 7.5 0 1 0 -15 0zM222 437.39 a7.5 7.5 0 1 0 15 0 a7.5 7.5 0 1 0 -15 0zM157.05 399.89 a7.5 7.5 0 1 0 15 0 a7.5 7.5 0 1 0 -15 0zM157.05 324.89 a7.5 7.5 0 1 0 15 0 a7.5 7.5 0 1 0 -15 0zM222 512.39 a7.5 7.5 0 1 0 15 0 a7.5 7.5 0 1 0 -15 0zM286.95 549.89 a7.5 7.5 0 1 0 15 0 a7.5 7.5 0 1 0 -15 0zM286.95 624.89 a7.5 7.5 0 1 0 15 0 a7.5 7.5 0 1 0 -15 0zM222 662.39 a7.5 7.5 0 1 0 15 0 a7.5 7.5 0 1 0 -15 0zM157.05 624.89 a7.5 7.5 0 1 0 15 0 a7.5 7.5 0 1 0 -15 0zM157.05 549.89 a7.5 7.5 0 1 0 15 0 a7.5 7.5 0 1 0 -15 0zM286.95 -50.11 a7.5 7.5 0 1 0 15 0 a7.5 7.5 0 1 0 -15 0zM351.91 -12.61 a7.5 7.5 0 1 0 15 0 a7.5 7.5 0 1 0 -15 0zM351.91 62.39 a7.5 7.5 0 1 0 15 0 a7.5 7.5 0 1 0 -15 0zM222 -12.61 a7.5 7.5 0 1 0 15 0 a7.5 7.5 0 1 0 -15 0zM416.86 99.89 a7.5 7.5 0 1 0 15 0 a7.5 7.5 0 1 0 -15 0zM416.86 174.89 a7.5 7.5 0 1 0 15 0 a7.5 7.5 0 1 0 -15 0zM351.91 212.39 a7.5 7.5 0 1 0 15 0 a7.5 7.5 0 1 0 -15 0zM351.91 287.39 a7.5 7.5 0 1 0 15 0 a7.5 7.5 0 1 0 -15 0zM416.86 324.89 a7.5 7.5 0 1 0 15 0 a7.5 7.5 0 1 0 -15 0zM416.86 399.89 a7.5 7.5 0 1 0 15 0 a7.5 7.5 0 1 0 -15 0zM351.91 437.39 a7.5 7.5 0 1 0 15 0 a7.5 7.5 0 1 0 -15 0zM481.82 62.39 a7.5 7.5 0 1 0 15 0 a7.5 7.5 0 1 0 -15 0zM546.77 99.89 a7.5 7.5 0 1 0 15 0 a7.5 7.5 0 1 0 -15 0zM546.77 174.89 a7.5 7.5 0 1 0 15 0 a7.5 7.5 0 1 0 -15 0zM481.82 212.39 a7.5 7.5 0 1 0 15 0 a7.5 7.5 0 1 0 -15 0zM481.82 287.39 a7.5 7.5 0 1 0 15 0 a7.5 7.5 0 1 0 -15 0zM546.77 324.89 a7.5 7.5 0 1 0 15 0 a7.5 7.5 0 1 0 -15 0zM546.77 399.89 a7.5 7.5 0 1 0 15 0 a7.5 7.5 0 1 0 -15 0zM481.82 437.39 a7.5 7.5 0 1 0 15 0 a7.5 7.5 0 1 0 -15 0zM546.77 -50.11 a7.5 7.5 0 1 0 15 0 a7.5 7.5 0 1 0 -15 0zM611.72 -12.61 a7.5 7.5 0 1 0 15 0 a7.5 7.5 0 1 0 -15 0zM611.72 62.39 a7.5 7.5 0 1 0 15 0 a7.5 7.5 0 1 0 -15 0zM481.82 -12.61 a7.5 7.5 0 1 0 15 0 a7.5 7.5 0 1 0 -15 0zM611.72 212.39 a7.5 7.5 0 1 0 15 0 a7.5 7.5 0 1 0 -15 0zM611.72 287.39 a7.5 7.5 0 1 0 15 0 a7.5 7.5 0 1 0 -15 0zM676.68 324.89 a7.5 7.5 0 1 0 15 0 a7.5 7.5 0 1 0 -15 0zM676.68 399.89 a7.5 7.5 0 1 0 15 0 a7.5 7.5 0 1 0 -15 0zM611.72 437.39 a7.5 7.5 0 1 0 15 0 a7.5 7.5 0 1 0 -15 0zM611.72 512.39 a7.5 7.5 0 1 0 15 0 a7.5 7.5 0 1 0 -15 0zM676.68 549.89 a7.5 7.5 0 1 0 15 0 a7.5 7.5 0 1 0 -15 0zM676.68 624.89 a7.5 7.5 0 1 0 15 0 a7.5 7.5 0 1 0 -15 0zM611.72 662.39 a7.5 7.5 0 1 0 15 0 a7.5 7.5 0 1 0 -15 0zM546.77 624.89 a7.5 7.5 0 1 0 15 0 a7.5 7.5 0 1 0 -15 0zM546.77 549.89 a7.5 7.5 0 1 0 15 0 a7.5 7.5 0 1 0 -15 0zM676.68 -50.11 a7.5 7.5 0 1 0 15 0 a7.5 7.5 0 1 0 -15 0zM741.63 -12.61 a7.5 7.5 0 1 0 15 0 a7.5 7.5 0 1 0 -15 0zM741.63 62.39 a7.5 7.5 0 1 0 15 0 a7.5 7.5 0 1 0 -15 0zM676.68 99.89 a7.5 7.5 0 1 0 15 0 a7.5 7.5 0 1 0 -15 0zM676.68 174.89 a7.5 7.5 0 1 0 15 0 a7.5 7.5 0 1 0 -15 0zM741.63 212.39 a7.5 7.5 0 1 0 15 0 a7.5 7.5 0 1 0 -15 0zM741.63 287.39 a7.5 7.5 0 1 0 15 0 a7.5 7.5 0 1 0 -15 0zM806.59 324.89 a7.5 7.5 0 1 0 15 0 a7.5 7.5 0 1 0 -15 0zM806.59 399.89 a7.5 7.5 0 1 0 15 0 a7.5 7.5 0 1 0 -15 0zM741.63 437.39 a7.5 7.5 0 1 0 15 0 a7.5 7.5 0 1 0 -15 0zM741.63 512.39 a7.5 7.5 0 1 0 15 0 a7.5 7.5 0 1 0 -15 0zM871.54 512.39 a7.5 7.5 0 1 0 15 0 a7.5 7.5 0 1 0 -15 0zM936.49 549.89 a7.5 7.5 0 1 0 15 0 a7.5 7.5 0 1 0 -15 0zM936.49 624.89 a7.5 7.5 0 1 0 15 0 a7.5 7.5 0 1 0 -15 0zM871.54 662.39 a7.5 7.5 0 1 0 15 0 a7.5 7.5 0 1 0 -15 0zM806.58 624.89 a7.5 7.5 0 1 0 15 0 a7.5 7.5 0 1 0 -15 0zM806.58 549.89 a7.5 7.5 0 1 0 15 0 a7.5 7.5 0 1 0 -15 0zM1001.45 62.39 a7.5 7.5 0 1 0 15 0 a7.5 7.5 0 1 0 -15 0zM1066.4 99.89 a7.5 7.5 0 1 0 15 0 a7.5 7.5 0 1 0 -15 0zM1066.4 174.89 a7.5 7.5 0 1 0 15 0 a7.5 7.5 0 1 0 -15 0zM1001.45 212.39 a7.5 7.5 0 1 0 15 0 a7.5 7.5 0 1 0 -15 0zM936.49 174.89 a7.5 7.5 0 1 0 15 0 a7.5 7.5 0 1 0 -15 0zM936.49 99.89 a7.5 7.5 0 1 0 15 0 a7.5 7.5 0 1 0 -15 0zM1001.45 287.39 a7.5 7.5 0 1 0 15 0 a7.5 7.5 0 1 0 -15 0zM936.49 324.89 a7.5 7.5 0 1 0 15 0 a7.5 7.5 0 1 0 -15 0zM871.54 287.39 a7.5 7.5 0 1 0 15 0 a7.5 7.5 0 1 0 -15 0zM871.54 212.39 a7.5 7.5 0 1 0 15 0 a7.5 7.5 0 1 0 -15 0zM1131.35 287.39 a7.5 7.5 0 1 0 15 0 a7.5 7.5 0 1 0 -15 0zM1196.31 324.89 a7.5 7.5 0 1 0 15 0 a7.5 7.5 0 1 0 -15 0zM1196.31 399.89 a7.5 7.5 0 1 0 15 0 a7.5 7.5 0 1 0 -15 0zM1131.35 437.39 a7.5 7.5 0 1 0 15 0 a7.5 7.5 0 1 0 -15 0zM1066.4 399.89 a7.5 7.5 0 1 0 15 0 a7.5 7.5 0 1 0 -15 0zM1066.4 324.89 a7.5 7.5 0 1 0 15 0 a7.5 7.5 0 1 0 -15 0zM1261.26 62.39 a7.5 7.5 0 1 0 15 0 a7.5 7.5 0 1 0 -15 0zM1326.21 99.89 a7.5 7.5 0 1 0 15 0 a7.5 7.5 0 1 0 -15 0zM1326.21 174.89 a7.5 7.5 0 1 0 15 0 a7.5 7.5 0 1 0 -15 0zM1261.26 212.39 a7.5 7.5 0 1 0 15 0 a7.5 7.5 0 1 0 -15 0zM1196.31 174.89 a7.5 7.5 0 1 0 15 0 a7.5 7.5 0 1 0 -15 0zM1196.31 99.89 a7.5 7.5 0 1 0 15 0 a7.5 7.5 0 1 0 -15 0zM1326.22 174.89 a7.5 7.5 0 1 0 15 0 a7.5 7.5 0 1 0 -15 0zM1391.17 212.39 a7.5 7.5 0 1 0 15 0 a7.5 7.5 0 1 0 -15 0zM1391.17 287.39 a7.5 7.5 0 1 0 15 0 a7.5 7.5 0 1 0 -15 0zM1326.22 324.89 a7.5 7.5 0 1 0 15 0 a7.5 7.5 0 1 0 -15 0zM1261.26 287.39 a7.5 7.5 0 1 0 15 0 a7.5 7.5 0 1 0 -15 0zM1456.12 324.89 a7.5 7.5 0 1 0 15 0 a7.5 7.5 0 1 0 -15 0zM1456.12 399.89 a7.5 7.5 0 1 0 15 0 a7.5 7.5 0 1 0 -15 0zM1391.17 437.39 a7.5 7.5 0 1 0 15 0 a7.5 7.5 0 1 0 -15 0zM1326.22 399.89 a7.5 7.5 0 1 0 15 0 a7.5 7.5 0 1 0 -15 0zM1391.17 512.39 a7.5 7.5 0 1 0 15 0 a7.5 7.5 0 1 0 -15 0zM1326.22 549.89 a7.5 7.5 0 1 0 15 0 a7.5 7.5 0 1 0 -15 0zM1261.26 512.39 a7.5 7.5 0 1 0 15 0 a7.5 7.5 0 1 0 -15 0zM1261.26 437.39 a7.5 7.5 0 1 0 15 0 a7.5 7.5 0 1 0 -15 0z" fill="rgba(93, 3, 3, 1)"></path><path d="M45.07 -34.71L88.37 -9.71L88.37 40.29L45.07 65.29L1.77 40.29L1.77 -9.71zM88.37 340.29L131.68 365.29L131.68 415.29L88.37 440.29L45.07 415.29L45.07 365.29zM131.68 115.29L174.98 140.29L174.98 190.29L131.68 215.29L88.37 190.29L88.37 140.29zM131.68 265.29L174.98 290.29L174.98 340.29L131.68 365.29L88.37 340.29L88.37 290.29zM174.98 490.29L218.28 515.29L218.28 565.29L174.98 590.29L131.68 565.29L131.68 515.29zM261.58 40.29L304.88 65.29L304.88 115.29L261.58 140.29L218.28 115.29L218.28 65.29zM218.28 115.29L261.58 140.29L261.58 190.29L218.28 215.29L174.98 190.29L174.98 140.29zM218.28 265.29L261.58 290.29L261.58 340.29L218.28 365.29L174.98 340.29L174.98 290.29zM304.88 115.29L348.19 140.29L348.19 190.29L304.88 215.29L261.58 190.29L261.58 140.29zM348.19 190.29L391.49 215.29L391.49 265.29L348.19 290.29L304.88 265.29L304.88 215.29zM434.79 490.29L478.1 515.29L478.1 565.29L434.79 590.29L391.49 565.29L391.49 515.29zM564.7 -34.71L608 -9.71L608 40.29L564.7 65.29L521.4 40.29L521.4 -9.71zM608 40.29L651.31 65.29L651.31 115.29L608 140.29L564.7 115.29L564.7 65.29zM564.7 115.29L608 140.29L608 190.29L564.7 215.29L521.4 190.29L521.4 140.29zM564.7 415.29L608 440.29L608 490.29L564.7 515.29L521.4 490.29L521.4 440.29zM694.61 40.29L737.91 65.29L737.91 115.29L694.61 140.29L651.31 115.29L651.31 65.29zM651.31 265.29L694.61 290.29L694.61 340.29L651.31 365.29L608 340.29L608 290.29zM781.21 490.29L824.52 515.29L824.52 565.29L781.21 590.29L737.91 565.29L737.91 515.29zM867.82 190.29L911.12 215.29L911.12 265.29L867.82 290.29L824.52 265.29L824.52 215.29zM954.42 190.29L997.73 215.29L997.73 265.29L954.42 290.29L911.12 265.29L911.12 215.29zM997.73 -34.71L1041.03 -9.71L1041.03 40.29L997.73 65.29L954.42 40.29L954.42 -9.71zM1041.03 190.29L1084.33 215.29L1084.33 265.29L1041.03 290.29L997.73 265.29L997.73 215.29zM1127.63 340.29L1170.93 365.29L1170.93 415.29L1127.63 440.29L1084.33 415.29L1084.33 365.29zM1170.93 115.29L1214.24 140.29L1214.24 190.29L1170.93 215.29L1127.63 190.29L1127.63 140.29zM1214.24 340.29L1257.54 365.29L1257.54 415.29L1214.24 440.29L1170.93 415.29L1170.93 365.29zM1344.14 115.29L1387.45 140.29L1387.45 190.29L1344.14 215.29L1300.84 190.29L1300.84 140.29zM1344.14 265.29L1387.45 290.29L1387.45 340.29L1344.14 365.29L1300.84 340.29L1300.84 290.29zM1474.05 190.29L1517.36 215.29L1517.36 265.29L1474.05 290.29L1430.75 265.29L1430.75 215.29zM1474.05 490.29L1517.36 515.29L1517.36 565.29L1474.05 590.29L1430.75 565.29L1430.75 515.29z" stroke="rgba(156, 6, 6, 0.93)" stroke-width="2"></path></g><defs><mask id="SvgjsMask1003"><rect width="1440" height="560" fill="#ffffff"></rect></mask></defs></svg>